<?xml version="1.0" standalone="no"?>
<!DOCTYPE svg PUBLIC "-//W3C//DTD SVG 20010904//EN"
 "http://www.w3.org/TR/2001/REC-SVG-20010904/DTD/svg10.dtd">
<svg version="1.0" xmlns="http://www.w3.org/2000/svg"
 width="200.000000pt" height="200.000000pt" viewBox="0 0 200.000000 200.000000"
 preserveAspectRatio="xMidYMid meet">
<metadata>
Created by potrace 1.10, written by Peter Selinger 2001-2011
</metadata>
<g transform="translate(0.000000,200.000000) scale(0.100000,-0.100000)"
fill="#000000" stroke="none">
<path d="M1367 1844 c-4 -4 -7 -20 -7 -35 l0 -28 -202 -3 c-194 -3 -205 -4
-248 -28 -33 -18 -61 -24 -105 -25 -44 0 -82 -9 -142 -34 -79 -32 -104 -51
-65 -51 9 0 56 -9 103 -22 81 -21 92 -21 182 -9 52 7 99 11 104 8 4 -3 37 -8
72 -12 75 -7 81 -3 81 68 l0 47 66 0 67 0 -6 -29 c-10 -47 6 -86 34 -86 22 0
24 4 27 58 l3 57 64 0 64 0 3 -51 c3 -55 21 -78 52 -66 12 5 16 20 16 62 l0
55 65 0 64 0 3 -57 c3 -57 3 -58 33 -58 l30 0 3 79 c2 44 -1 83 -7 89 -5 5
-72 8 -149 8 l-141 -2 -3 33 c-2 27 -8 34 -28 36 -14 2 -29 0 -33 -4z m36 -66
c-3 -17 -2 -19 5 -10 7 11 10 11 15 -2 5 -13 -1 -16 -34 -16 -25 0 -38 4 -34
10 4 6 10 8 15 5 4 -3 10 4 13 15 7 28 26 25 20 -2z m-333 -81 l0 -73 -97 1
c-54 0 -118 -3 -143 -6 -31 -4 -71 1 -128 15 l-82 22 57 24 c39 17 80 25 124
26 46 2 79 9 110 25 48 24 89 36 132 38 l27 1 0 -73z m110 59 c0 -3 -13 -11
-28 -18 -29 -15 -52 -13 -52 4 0 6 6 8 13 5 6 -2 21 -1 32 4 24 9 35 11 35 5z
m138 -22 c-11 -22 -18 -23 -46 -1 -16 12 -3 21 31 23 23 2 25 0 15 -22z m172
14 c0 -5 5 -8 11 -8 5 0 7 4 4 10 -3 6 1 7 9 4 20 -8 20 -20 0 -28 -8 -3 -12
-10 -9 -16 3 -5 2 -10 -2 -10 -5 0 -14 9 -21 20 -7 11 -19 20 -27 20 -8 0 -15
4 -15 9 0 5 11 8 25 7 14 0 25 -4 25 -8z m204 -11 c14 -22 -3 -36 -18 -14 -7
9 -19 17 -25 17 -7 0 -10 4 -7 9 9 14 38 7 50 -12z"/>
<path d="M566 1583 c-14 -14 -4 -36 29 -67 19 -19 35 -38 35 -45 0 -8 -54 -11
-185 -11 -211 0 -223 -5 -161 -63 41 -39 85 -129 93 -188 l6 -40 -129 2 c-156
2 -168 -6 -108 -68 21 -21 47 -54 57 -71 l18 -32 -39 0 c-22 0 -45 -6 -51 -14
-13 -15 -6 -42 14 -50 7 -2 21 -29 31 -58 17 -51 18 -71 14 -252 -1 -82 11
-104 77 -143 27 -15 98 -63 160 -106 265 -185 486 -251 759 -227 261 23 427
90 550 223 69 74 119 174 141 282 l16 79 -32 28 -31 28 25 38 c34 51 41 119
21 210 -8 40 -13 87 -9 103 6 32 9 31 -79 29 l-57 -1 -3 53 -3 53 -325 0 -325
0 -3 -52 -3 -53 -150 0 c-131 0 -150 -2 -156 -17 -4 -9 -1 -19 5 -21 7 -2 10
-7 7 -12 -3 -4 4 -28 15 -51 24 -53 25 -69 5 -69 -8 0 -15 9 -15 20 0 26 -30
100 -41 100 -4 0 1 -19 11 -42 24 -52 25 -78 5 -78 -9 0 -15 9 -15 21 0 31
-22 99 -32 99 -11 0 -10 -2 7 -43 19 -45 19 -77 1 -77 -9 0 -15 17 -18 51 -3
27 -11 56 -18 62 -10 10 -11 8 -5 -8 13 -35 18 -105 8 -105 -6 0 -13 21 -17
48 -3 26 -11 54 -17 62 -9 14 -7 -22 7 -87 3 -15 0 -23 -9 -23 -10 0 -16 20
-20 68 -6 69 -31 142 -68 193 l-20 29 271 0 c183 0 269 3 265 10 -4 7 -101 10
-273 10 -147 0 -275 0 -284 0 -10 0 -18 5 -18 10 0 6 101 10 284 10 179 0 287
-4 291 -10 9 -15 162 -13 168 3 11 33 -5 47 -54 47 -43 0 -49 3 -49 21 0 17 6
20 38 19 59 -3 62 -2 62 30 0 32 -3 33 -60 30 -41 -2 -50 -8 -31 -19 10 -7 8
-12 -8 -23 -11 -8 -18 -18 -14 -21 3 -4 -1 -7 -9 -7 -18 0 -35 63 -18 68 7 3
6 10 0 23 -8 14 -7 19 2 19 9 0 9 3 -2 10 -12 8 -12 10 5 10 17 0 17 2 5 10
-18 12 -2 12 25 0 16 -7 17 -9 3 -9 -19 -1 -31 -31 -22 -55 8 -20 24 -11 24
15 0 16 7 19 44 19 50 0 72 18 53 43 -18 24 -145 27 -162 3 -11 -15 -38 -16
-256 -14 -328 4 -322 21 8 28 l248 6 -225 3 c-124 2 -237 5 -252 6 -14 2 -29
1 -32 -2z m504 -150 c0 -102 -16 -121 -23 -28 l-3 50 -2 -52 c-2 -67 -22 -70
-22 -3 0 30 -4 50 -11 50 -7 0 -9 -16 -4 -50 6 -42 4 -50 -9 -50 -13 0 -16 11
-16 50 0 28 -3 50 -7 50 -5 0 -6 -22 -5 -50 3 -32 0 -50 -7 -50 -6 0 -11 15
-12 33 -1 17 -5 43 -10 57 -6 19 -8 10 -6 -33 1 -40 -2 -57 -10 -57 -9 0 -13
17 -13 50 0 28 -4 50 -10 50 -5 0 -7 -21 -3 -50 8 -67 -11 -65 -25 3 l-11 52
2 -53 c1 -36 -2 -52 -10 -52 -9 0 -13 16 -13 44 0 25 -5 48 -10 51 -8 5 -9
-10 -4 -44 6 -43 4 -51 -10 -51 -13 0 -16 10 -16 50 0 28 -3 50 -7 50 -5 0 -6
-22 -5 -50 3 -32 0 -50 -7 -50 -6 0 -11 15 -12 33 -1 17 -5 43 -10 57 -6 17
-7 7 -3 -32 5 -48 3 -58 -10 -58 -12 0 -16 11 -16 50 0 28 -4 50 -9 50 -4 0
-6 -22 -3 -50 3 -30 1 -50 -5 -50 -6 0 -13 23 -17 50 -4 28 -10 50 -15 50 -5
0 -5 -19 0 -42 11 -58 11 -58 -5 -58 -9 0 -15 19 -19 60 -3 38 -13 70 -27 90
l-21 30 230 0 231 0 0 -97z m-430 2 c0 -13 -27 -15 -184 -15 -168 0 -208 5
-189 24 3 3 89 6 190 6 156 0 183 -2 183 -15z m-295 -56 c9 -17 19 -29 22 -26
2 3 -1 15 -7 27 -6 12 -9 25 -5 28 8 8 35 -27 35 -45 0 -7 5 -13 11 -13 6 0 9
6 6 13 -3 6 -8 20 -12 30 -4 10 -3 17 4 17 7 0 17 -13 22 -30 6 -16 15 -30 20
-30 5 0 3 11 -3 25 -6 14 -9 28 -5 31 10 10 27 -6 27 -26 0 -10 5 -22 11 -26
8 -4 9 3 4 26 -5 24 -4 31 6 28 16 -5 32 -62 19 -66 -18 -6 -10 -39 13 -55 12
-8 35 -38 50 -66 l28 -51 -95 0 c-80 0 -96 3 -96 15 0 31 -43 141 -71 182 -20
31 -24 43 -14 43 8 0 22 -14 30 -31z m191 6 c4 -14 3 -29 0 -33 -9 -8 -26 18
-26 41 0 26 19 20 26 -8z m38 3 c9 -34 8 -38 -9 -38 -10 0 -15 10 -15 30 0 35
15 40 24 8z m36 -3 c0 -14 5 -25 10 -25 6 0 8 11 4 26 -5 20 -3 25 7 22 8 -2
15 -17 17 -31 3 -24 0 -27 -27 -27 -20 0 -31 5 -31 14 0 8 -3 21 -6 30 -4 11
-1 16 10 16 10 0 16 -9 16 -25z m499 -17 c1 10 5 9 18 -3 13 -14 14 -18 2 -25
-18 -12 -39 7 -38 34 0 20 1 21 9 1 5 -11 9 -14 9 -7z m585 -133 c2 -7 -2 -16
-11 -19 -10 -4 -13 -2 -10 8 3 7 0 13 -6 13 -36 -1 -67 4 -67 11 0 13 88 1 94
-13z m-561 -4 c-12 -10 -19 -21 -16 -25 4 -3 2 -6 -4 -6 -19 0 -21 12 -5 31 9
10 23 19 32 19 11 -1 9 -5 -7 -19z m527 -135 c0 -70 4 -117 11 -121 5 -4 21
-4 35 -1 23 6 24 10 24 77 l0 70 58 -3 57 -3 12 -55 c20 -98 16 -168 -12 -217
-14 -23 -30 -43 -35 -43 -14 0 -13 4 10 42 10 18 20 51 22 73 3 61 -1 115 -10
115 -4 0 -6 -33 -4 -72 2 -60 -1 -79 -17 -105 -12 -18 -26 -33 -32 -33 -8 0
-8 4 -2 13 23 28 35 90 28 143 -3 30 -10 54 -14 54 -4 0 -4 -23 -1 -52 11 -81
-16 -169 -42 -142 -4 3 0 17 8 32 15 30 17 103 3 142 -6 18 -7 9 -4 -30 6 -66
-10 -130 -31 -130 -11 0 -12 4 -4 19 5 11 10 35 9 53 -1 37 -4 31 -14 -24 -9
-54 -33 -50 -30 5 2 37 2 38 -4 8 -3 -19 -12 -37 -20 -39 -11 -4 -13 4 -8 37
3 22 1 41 -4 41 -5 0 -9 -16 -9 -35 0 -24 -5 -35 -14 -35 -11 0 -13 9 -9 35 4
23 2 35 -6 35 -6 0 -11 -16 -11 -35 0 -22 -5 -35 -13 -35 -9 0 -12 11 -9 35 3
21 0 35 -7 35 -6 0 -8 -11 -4 -30 4 -23 2 -30 -11 -30 -11 0 -16 9 -16 31 0
16 -4 28 -8 25 -5 -3 -7 -19 -4 -36 3 -23 0 -30 -12 -30 -12 0 -16 10 -18 38
l-1 37 -4 -37 c-5 -44 -20 -50 -29 -10 -10 46 -12 48 -13 10 -1 -36 -2 -36
-51 -43 -50 -7 -130 -26 -161 -39 -13 -6 -15 -1 -11 24 2 18 0 30 -7 30 -6 0
-11 -16 -11 -35 0 -47 -20 -45 -21 3 l-1 37 -7 -35 c-13 -64 -25 -70 -32 -15
l-6 50 -1 -46 c-1 -29 -8 -52 -18 -60 -14 -12 -15 -8 -9 44 5 40 4 57 -4 57
-7 0 -11 -19 -11 -48 0 -27 -7 -57 -15 -68 -13 -17 -14 -12 -8 49 4 49 3 67
-6 67 -7 0 -9 -4 -6 -10 9 -15 -6 -107 -21 -127 -11 -15 -12 -6 -9 62 l4 80
-9 -63 c-5 -34 -12 -72 -15 -82 -9 -28 -28 -25 -21 3 13 52 18 137 9 137 -6 0
-13 -34 -16 -76 -4 -54 -11 -82 -23 -93 -15 -15 -16 -14 -10 9 4 14 9 57 11
95 l5 70 -15 -89 c-13 -82 -27 -117 -40 -105 -2 3 0 21 5 40 6 18 9 61 9 94
l-2 60 -7 -71 c-10 -94 -19 -134 -31 -134 -7 0 -7 18 -2 48 21 126 0 269 -51
345 l-25 37 129 0 129 0 3 -72 3 -73 30 0 30 0 3 118 3 117 259 0 260 0 0
-114z m45 64 c0 -22 -1 -40 -2 -40 -1 0 -7 10 -14 21 -8 15 -8 19 0 15 14 -9
14 0 1 25 -8 14 -7 19 2 19 9 0 13 -14 13 -40z m-1105 -15 c0 -13 -33 -15
-234 -15 -213 0 -258 4 -239 24 3 3 111 6 240 6 200 0 233 -2 233 -15z m470 0
c0 -13 -20 -15 -142 -13 -102 2 -143 6 -146 16 -3 9 30 12 142 12 124 0 146
-2 146 -15z m785 0 c0 -5 -28 -11 -62 -13 -52 -2 -63 0 -63 13 0 13 11 15 63
13 34 -2 62 -7 62 -13z m-1635 -80 c19 -30 39 -54 43 -55 9 0 5 8 -35 67 l-28
41 57 -1 56 -2 26 -50 c14 -27 27 -52 29 -54 1 -2 4 -2 7 1 3 2 -6 27 -20 54
-29 58 -29 54 -11 54 8 0 25 -25 37 -56 13 -31 25 -51 27 -46 2 6 -6 29 -17
51 -25 48 -25 51 -7 51 14 0 46 -67 46 -95 0 -8 5 -15 11 -15 11 0 7 21 -17
78 -11 27 -11 32 1 32 11 0 26 -29 49 -100 2 -9 5 -6 5 8 1 12 -6 39 -14 58
-13 33 -13 35 3 32 11 -2 21 -20 29 -52 7 -27 15 -51 19 -55 7 -6 2 30 -12 83
-4 19 -2 26 9 26 10 0 18 -18 25 -57 l11 -58 -4 58 c-5 75 15 73 32 -4 l13
-54 -5 58 c-4 44 -2 57 9 57 12 0 26 -58 26 -106 0 -10 -28 -14 -116 -16 -100
-3 -118 -6 -128 -21 -9 -14 -7 -21 10 -35 34 -28 49 -80 49 -174 0 -47 -3 -89
-6 -92 -3 -3 -33 0 -66 6 l-61 11 -4 91 c-6 108 -30 179 -94 272 -25 36 -38
64 -31 64 7 0 28 -25 47 -55z m601 12 c39 -62 42 -77 19 -77 -12 0 -20 7 -20
18 0 9 -9 36 -20 60 -25 54 -13 54 21 -1z m49 -107 c0 -9 -447 -19 -470 -12
-6 2 -10 8 -10 13 0 4 51 10 113 11 172 4 367 -2 367 -12z m-630 1 c0 -9 -70
-19 -89 -13 -28 9 -6 22 39 22 28 0 50 -4 50 -9z m27 -81 c19 -64 29 -190 15
-190 -6 0 -22 4 -35 9 -21 8 -26 20 -37 88 -7 43 -18 90 -26 105 -20 38 -19
39 28 36 41 -3 43 -5 55 -48z m613 -30 c0 -101 -16 -180 -37 -180 -10 0 -13 6
-9 17 4 9 9 44 11 77 l5 61 -15 -74 c-8 -41 -20 -78 -27 -82 -19 -12 -19 -7
-7 49 6 28 9 64 7 79 -2 17 -9 -4 -17 -54 -10 -61 -17 -83 -28 -83 -11 0 -14
6 -9 23 3 12 8 49 11 82 4 58 4 57 -11 -20 -8 -44 -20 -83 -27 -87 -17 -11
-19 -5 -8 43 6 24 10 62 10 84 -1 30 -4 20 -15 -40 -14 -76 -27 -106 -40 -93
-3 3 -1 23 5 45 6 21 10 58 10 83 -1 50 -3 45 -19 -57 -9 -54 -16 -73 -27 -73
-10 0 -13 5 -8 18 4 9 9 49 11 87 3 68 3 69 -5 17 -17 -106 -22 -122 -36 -122
-11 0 -12 7 -4 32 5 18 8 58 8 88 l-2 55 -8 -65 c-12 -92 -17 -110 -34 -110
-11 0 -12 5 -5 26 6 14 9 53 9 87 l-2 62 -7 -65 c-14 -135 -39 -152 -35 -22
l4 87 -8 -78 c-8 -70 -22 -109 -35 -96 -2 2 -1 33 3 69 5 36 5 74 0 85 -5 14
-8 5 -8 -31 -1 -70 -11 -114 -26 -114 -9 0 -10 14 -3 55 8 52 -5 147 -27 198
-7 16 8 17 224 17 l231 0 0 -80z m644 -72 c-4 -46 -9 -86 -13 -89 -3 -3 -41
-11 -85 -18 -43 -7 -131 -31 -195 -53 -267 -92 -346 -108 -535 -108 -132 0
-296 27 -412 67 -73 26 -79 30 -82 58 -4 54 6 58 94 36 187 -49 464 -44 640
10 35 11 115 44 178 74 156 73 253 100 374 104 l42 1 -6 -82z m166 54 c30 -9
82 -35 115 -58 58 -40 60 -42 59 -85 0 -24 -6 -63 -13 -86 l-11 -41 -54 32
c-44 27 -140 66 -225 92 -10 3 -12 16 -7 51 3 25 6 63 6 85 l0 39 38 -6 c20
-4 62 -14 92 -23z m-181 -224 c-5 -29 -12 -67 -14 -85 -5 -31 -7 -31 -65 -35
l-60 -3 0 31 c0 17 3 51 6 76 l6 45 57 10 c31 6 61 11 67 12 8 1 9 -14 3 -51z
m110 30 c18 -6 22 -13 17 -31 -3 -12 -9 -46 -12 -75 -5 -40 -10 -52 -21 -48
-8 4 -30 6 -48 6 l-33 0 9 39 c5 22 10 60 11 85 1 44 2 45 27 39 14 -3 37 -10
50 -15z m-276 -85 l-6 -72 -50 -11 c-27 -6 -51 -9 -53 -7 -2 2 -1 32 2 68 l7
65 51 15 c28 8 52 15 53 14 1 0 -1 -33 -4 -72z m364 50 c21 -10 39 -18 41 -19
3 -2 -27 -114 -34 -126 -2 -3 -19 -2 -37 4 l-33 10 10 74 c5 41 11 74 12 74 2
0 20 -8 41 -17z m-497 -50 c0 -16 -3 -45 -6 -65 -6 -33 -11 -39 -43 -48 -57
-16 -58 -15 -51 45 7 62 5 60 50 79 47 21 50 20 50 -11z m-961 7 c4 0 5 -14 3
-32 l-5 -32 -18 23 c-24 29 -25 55 -3 47 9 -3 19 -6 23 -6z m1561 -69 c-29
-57 -43 -72 -59 -62 -13 9 -13 11 25 130 3 11 10 9 29 -9 l24 -23 -19 -36z
m-1470 7 c0 -31 -7 -34 -45 -16 -27 12 -27 13 -19 44 5 19 9 20 35 11 22 -9
29 -18 29 -39z m744 -15 c-3 -32 -7 -59 -8 -60 -1 -1 -21 -5 -44 -9 l-42 -7 0
39 c0 22 4 45 9 53 8 12 58 36 84 40 5 0 5 -25 1 -56z m-647 -7 c-3 -27 -7
-31 -32 -29 -37 3 -49 16 -42 45 6 21 11 23 42 20 34 -4 36 -6 32 -36z m528
-24 l-7 -50 -44 -4 c-41 -3 -45 -1 -40 17 3 11 6 32 6 46 0 23 6 27 43 36 23
5 44 8 46 7 1 -2 0 -25 -4 -52z m-429 34 c1 0 -1 -17 -3 -37 l-5 -36 -37 9
c-35 9 -37 11 -33 44 4 34 5 34 41 28 20 -4 36 -7 37 -8z m98 -45 c-7 -45 -7
-45 -46 -37 -32 6 -33 8 -30 44 4 37 4 37 43 34 38 -4 39 -4 33 -41z m217 36
c-1 -4 -1 -25 -1 -47 l0 -40 -46 0 c-38 0 -45 3 -40 16 3 9 6 28 6 44 0 25 4
29 33 33 40 5 49 4 48 -6z m-111 -42 l0 -45 -40 0 -40 0 0 45 0 45 40 0 40 0
0 -45z m748 23 c-3 -7 -13 -36 -23 -63 l-17 -51 -102 -12 c-56 -7 -194 -30
-307 -51 -276 -53 -284 -54 -352 -36 -63 16 -108 40 -227 118 -98 65 -104 71
-50 52 104 -37 184 -48 350 -48 179 -1 246 8 445 54 72 17 162 35 200 39 39 4
74 8 79 9 4 0 6 -5 4 -11z m155 -14 c12 -4 42 -15 66 -26 l44 -19 -39 -40
c-54 -56 -66 -61 -106 -45 -18 8 -55 17 -81 21 -30 5 -46 12 -43 19 2 6 12 34
22 62 l17 51 49 -8 c27 -4 59 -11 71 -15z m-246 -186 c-51 -80 -62 -86 -162
-98 -146 -16 -249 -12 -365 14 -58 13 -116 29 -130 35 -22 8 -18 10 28 10 29
1 146 19 259 42 229 45 396 69 401 58 2 -5 -12 -32 -31 -61z m171 52 c28 -7
52 -16 52 -21 0 -16 -186 -99 -221 -99 -5 0 9 28 31 62 22 33 40 65 40 70 0 9
5 8 98 -12z"/>
<path d="M1192 1168 c-12 -12 -17 -124 -6 -152 5 -13 23 -16 90 -16 67 0 84
-3 84 -15 0 -10 -16 -15 -62 -17 -63 -3 -63 -3 -63 -33 l0 -30 75 -3 c111 -4
120 -1 120 53 l0 45 83 0 c51 0 88 5 95 12 15 15 16 122 2 149 -12 21 -45 26
-56 7 -4 -6 -6 -31 -5 -55 l1 -43 -55 0 c-30 0 -57 0 -60 0 -3 0 -4 3 -2 8 1
4 14 6 28 4 30 -3 49 15 44 43 -2 11 -4 28 -4 38 -1 15 -13 17 -107 17 l-105
0 3 -47 c3 -47 4 -48 36 -46 17 1 32 -2 32 -8 0 -5 -25 -9 -55 -9 l-55 0 0 49
c0 35 -4 51 -16 55 -22 8 -28 8 -42 -6z m278 -38 c0 -6 -30 -10 -69 -10 -39 0
-73 5 -76 10 -4 6 22 10 69 10 44 0 76 -4 76 -10z m-59 -44 c-10 -12 -7 -18
13 -31 31 -21 33 -31 6 -38 -11 -3 -24 -16 -29 -29 -7 -17 -10 -18 -10 -6 -1
10 -10 23 -21 30 -36 23 -24 54 18 49 7 -1 12 2 11 6 -3 19 2 33 12 33 8 0 8
-4 0 -14z"/>
<path d="M240 1105 c0 -9 60 -100 60 -91 0 11 -49 96 -55 96 -3 0 -5 -2 -5 -5z"/>
<path d="M282 1103 c47 -99 46 -98 54 -90 7 6 -42 97 -52 97 -3 0 -4 -3 -2 -7z"/>
<path d="M1408 823 c0 -16 -2 -32 -3 -38 -2 -5 -3 -19 -4 -30 -1 -16 -9 -12
-45 24 -28 27 -50 42 -59 38 -16 -6 -32 -93 -25 -135 5 -36 28 -10 36 41 l7
46 40 -34 c55 -48 71 -46 79 11 10 76 8 104 -9 104 -9 0 -16 -10 -17 -27z"/>
<path d="M1620 778 c0 -35 4 -68 8 -74 21 -31 97 -45 120 -22 18 18 16 114 -3
122 -12 4 -15 -3 -15 -37 0 -59 -12 -74 -47 -61 -26 9 -28 13 -28 69 0 49 -3
60 -17 63 -16 3 -18 -5 -18 -60z"/>
<path d="M1287 1573 c-19 -18 -6 -51 25 -64 l31 -13 -31 -15 c-40 -19 -43 -53
-6 -77 l25 -17 -26 -22 c-30 -23 -31 -58 -3 -63 9 -2 35 8 58 23 l41 26 33
-26 c37 -28 58 -31 75 -11 15 17 1 50 -25 60 -24 9 -27 8 -21 -13 3 -15 0 -17
-17 -13 -11 3 -15 7 -8 10 9 3 8 7 -2 18 -11 11 -21 11 -45 3 -19 -7 -28 -15
-24 -22 3 -7 3 -9 -2 -5 -4 4 -17 2 -28 -4 -21 -11 -21 -10 -5 14 19 29 18 63
-2 63 -22 0 -22 20 1 41 13 10 19 14 16 7 -4 -6 -3 -14 3 -18 6 -4 8 -11 5
-16 -4 -5 -1 -9 6 -9 9 0 9 -3 0 -14 -10 -12 -8 -14 13 -12 13 1 35 10 48 19
l23 17 -24 17 c-13 10 -33 17 -45 18 -11 0 -21 6 -21 13 0 7 -6 17 -14 21 -9
6 -10 11 -2 15 6 4 11 2 11 -3 0 -6 3 -10 8 -9 4 0 14 -1 22 -5 37 -14 46 -12
68 12 23 25 23 25 17 4 -8 -29 5 -29 34 -2 24 23 24 37 -1 53 -12 7 -26 5 -52
-9 -20 -11 -36 -23 -36 -28 0 -5 -20 3 -44 17 -45 26 -67 32 -79 19z m110
-123 c13 0 23 -4 23 -10 0 -19 -45 -10 -59 13 -10 17 -11 19 0 10 7 -7 23 -13
36 -13z"/>
<path d="M1554 1555 c-14 -34 4 -47 59 -43 50 3 53 2 49 -19 -4 -19 -12 -22
-56 -25 -47 -3 -51 -5 -51 -28 0 -23 4 -25 53 -28 44 -3 52 -6 52 -23 0 -17
-6 -20 -45 -18 -49 3 -69 -9 -63 -37 3 -16 15 -19 85 -22 99 -3 95 -9 91 148
l-3 105 -83 3 c-67 2 -83 0 -88 -13z m146 -32 c0 -13 -5 -23 -11 -23 -6 0 -9
8 -7 18 4 15 -1 17 -34 13 -22 -2 -44 1 -48 5 -5 5 15 9 46 9 49 0 54 -2 54
-22z m0 -82 c0 -17 -6 -31 -16 -35 -8 -3 -12 -2 -9 4 3 6 2 10 -3 10 -13 0
-10 33 3 42 18 14 25 8 25 -21z m0 -79 c0 -12 -8 -18 -25 -20 -29 -2 -33 12
-7 27 25 15 32 13 32 -7z"/>
<path d="M1445 1462 c1 -20 5 -44 10 -51 5 -10 4 -12 -3 -7 -7 4 -12 1 -12 -9
0 -9 3 -15 8 -13 48 24 62 33 66 44 8 22 -3 40 -32 55 -15 7 -30 15 -33 16 -3
2 -5 -14 -4 -35z"/>
</g>
</svg>
