<?xml version="1.0" standalone="no"?>
<!DOCTYPE svg PUBLIC "-//W3C//DTD SVG 20010904//EN"
 "http://www.w3.org/TR/2001/REC-SVG-20010904/DTD/svg10.dtd">
<svg version="1.0" xmlns="http://www.w3.org/2000/svg"
 width="300.000000pt" height="169.000000pt" viewBox="0 0 300.000000 169.000000"
 preserveAspectRatio="xMidYMid meet">
<metadata>
Created by potrace 1.10, written by Peter Selinger 2001-2011
</metadata>
<g transform="translate(0.000000,169.000000) scale(0.100000,-0.100000)"
fill="#000000" stroke="none">
<path d="M717 1189 c-91 -21 -170 -84 -218 -171 -33 -60 -34 -67 -34 -168 0
-89 3 -112 23 -151 36 -74 87 -125 160 -161 l66 -33 228 -3 228 -3 0 25 0 26
-91 0 -91 0 43 32 c25 20 57 59 78 98 35 63 36 68 36 170 0 110 -10 144 -68
222 -70 94 -233 147 -360 117z m220 -75 c101 -48 157 -142 157 -264 0 -177
-118 -295 -294 -294 -92 0 -157 30 -218 99 -70 80 -90 215 -47 319 62 147 248
212 402 140z"/>
<path d="M1220 1180 c0 -13 7 -20 20 -20 33 0 97 -37 120 -70 12 -16 24 -46
27 -65 4 -26 10 -35 26 -35 17 0 19 5 14 38 -7 59 -51 117 -110 147 -63 31
-97 33 -97 5z"/>
<path d="M1220 1103 c0 -10 15 -25 33 -33 18 -8 39 -29 47 -47 16 -35 50 -45
50 -15 0 28 -37 80 -69 97 -39 20 -61 19 -61 -2z"/>
<path d="M1220 1020 c0 -27 3 -30 30 -30 27 0 30 2 20 20 -6 11 -19 24 -30 30
-18 10 -20 7 -20 -20z"/>
<path d="M1220 720 l0 -220 30 0 30 0 0 220 0 220 -30 0 -30 0 0 -220z"/>
<path d="M1512 784 c-46 -32 -20 -93 44 -99 l40 -3 2 43 c1 35 -3 47 -20 60
-28 19 -38 19 -66 -1z m66 -40 c2 -22 -2 -33 -14 -38 -30 -11 -54 3 -54 33 0
35 8 43 40 39 20 -2 26 -9 28 -34z"/>
<path d="M1632 754 c3 -54 28 -78 66 -63 19 7 22 15 21 61 -1 30 -4 40 -6 23
-8 -67 -13 -76 -36 -73 -19 3 -22 10 -25 51 -2 26 -8 47 -13 47 -6 0 -9 -20
-7 -46z"/>
<path d="M1772 748 c-21 -48 -22 -83 -1 -45 12 21 55 23 63 2 3 -8 10 -15 16
-15 5 0 -2 25 -17 55 -15 30 -30 55 -33 55 -3 0 -15 -24 -28 -52z"/>
<path d="M1890 797 c-3 -3 -3 -28 -2 -56 l4 -51 36 2 c37 1 37 1 5 5 -31 4
-32 6 -35 55 -2 27 -5 48 -8 45z"/>
<path d="M2000 780 c-23 -23 -26 -49 -7 -74 15 -21 63 -25 80 -6 9 9 5 11 -19
6 -36 -8 -57 11 -52 46 3 20 9 23 41 22 30 -1 35 1 26 12 -16 20 -46 17 -69
-6z"/>
<path d="M2120 780 c-37 -37 -16 -92 35 -92 50 0 74 62 37 95 -25 22 -48 21
-72 -3z m68 -37 c2 -25 -1 -33 -18 -38 -26 -8 -50 10 -50 40 0 29 9 37 40 33
20 -2 26 -9 28 -35z"/>
<path d="M2247 794 c-11 -11 -8 -104 3 -104 6 0 10 17 10 37 l0 37 17 -23 16
-24 19 23 18 22 0 -36 c0 -20 5 -36 10 -36 6 0 10 25 10 55 0 30 -4 55 -10 55
-5 0 -10 -3 -10 -7 0 -5 -9 -19 -19 -32 l-18 -23 -19 31 c-11 17 -23 28 -27
25z"/>
<path d="M2390 763 c0 -23 -3 -48 -6 -57 -3 -9 -1 -16 5 -16 6 0 11 17 11 38
l0 37 20 -25 c17 -21 21 -23 30 -10 15 23 12 34 -5 20 -8 -7 -15 -9 -15 -4 0
5 -9 20 -20 34 l-20 25 0 -42z"/>
<path d="M2473 788 c-12 -15 -5 -98 8 -98 5 0 9 25 9 55 0 58 -2 62 -17 43z"/>
<path d="M1500 566 c0 -31 5 -56 10 -56 6 0 10 22 10 49 0 28 -4 53 -10 56 -6
4 -10 -15 -10 -49z"/>
<path d="M1550 565 c0 -30 5 -55 10 -55 6 0 10 17 10 38 l1 37 32 -38 c18 -20
35 -37 40 -37 4 0 7 25 7 55 0 30 -4 55 -10 55 -5 0 -10 -19 -10 -42 l0 -42
-32 42 c-18 23 -36 42 -40 42 -4 0 -8 -25 -8 -55z"/>
<path d="M1692 608 c-20 -20 -13 -39 18 -49 17 -6 30 -17 30 -25 0 -17 -31
-18 -49 -1 -11 10 -13 9 -9 -3 3 -10 17 -15 39 -15 27 0 34 4 34 20 0 12 -11
25 -27 33 -34 16 -37 34 -5 32 35 -3 43 0 27 10 -20 13 -44 12 -58 -2z"/>
<path d="M1780 610 c0 -5 9 -10 20 -10 17 0 20 -7 20 -45 0 -25 3 -45 8 -45 4
0 6 20 4 45 -4 40 -2 45 17 45 12 0 21 5 21 10 0 6 -20 10 -45 10 -25 0 -45
-4 -45 -10z"/>
<path d="M1900 565 c0 -30 5 -55 10 -55 6 0 10 25 10 55 0 30 -4 55 -10 55 -5
0 -10 -25 -10 -55z"/>
<path d="M1950 610 c0 -5 7 -10 15 -10 11 0 15 -12 15 -45 0 -25 5 -45 10 -45
6 0 10 20 10 45 0 33 4 45 15 45 8 0 15 5 15 10 0 6 -18 10 -40 10 -22 0 -40
-4 -40 -10z"/>
<path d="M2060 584 c0 -51 15 -74 50 -74 16 0 32 4 35 10 10 16 15 81 8 93 -5
7 -10 -10 -13 -38 -5 -45 -7 -50 -30 -50 -23 0 -25 4 -28 48 -4 54 -22 64 -22
11z"/>
<path d="M2180 610 c0 -5 9 -10 20 -10 17 0 20 -7 20 -45 0 -26 5 -45 11 -45
8 0 9 15 5 45 -7 41 -5 45 13 45 12 0 21 5 21 10 0 6 -20 10 -45 10 -25 0 -45
-4 -45 -10z"/>
<path d="M2300 565 l0 -55 43 2 c36 1 38 2 10 5 -25 3 -33 9 -33 25 0 16 5 19
25 16 14 -3 28 -1 31 3 3 5 -9 9 -25 9 -21 0 -31 5 -31 15 0 10 10 15 30 15
17 0 30 5 30 10 0 6 -18 10 -40 10 l-40 0 0 -55z"/>
</g>
</svg>
