<?xml version="1.0" standalone="no"?>
<!DOCTYPE svg PUBLIC "-//W3C//DTD SVG 20010904//EN"
 "http://www.w3.org/TR/2001/REC-SVG-20010904/DTD/svg10.dtd">
<svg version="1.0" xmlns="http://www.w3.org/2000/svg"
 width="300.000000pt" height="150.000000pt" viewBox="0 0 300.000000 150.000000"
 preserveAspectRatio="xMidYMid meet">
<metadata>
Created by potrace 1.10, written by Peter Selinger 2001-2011
</metadata>
<g transform="translate(0.000000,150.000000) scale(0.100000,-0.100000)"
fill="#000000" stroke="none">
<path d="M911 1314 c-11 -14 -22 -30 -24 -37 -3 -8 -15 -2 -34 16 -37 35 -50
34 -58 -3 -9 -41 -20 -45 -54 -19 -34 25 -51 19 -51 -21 0 -38 -13 -44 -50
-25 -40 21 -54 11 -47 -32 7 -39 -6 -49 -45 -34 -34 13 -50 -3 -37 -37 15 -39
5 -52 -34 -45 -43 7 -53 -7 -32 -47 19 -37 13 -50 -25 -50 -40 0 -46 -17 -21
-51 26 -34 22 -45 -19 -54 -37 -8 -38 -21 -2 -58 19 -21 23 -31 14 -34 -7 -3
-25 -15 -39 -27 l-26 -23 37 -23 37 -22 -25 -27 c-34 -36 -33 -47 9 -61 40
-13 41 -16 15 -50 -29 -36 -25 -47 20 -54 46 -7 45 -7 25 -47 -20 -39 -13 -49
36 -49 40 0 41 0 34 -32 -4 -18 -8 -37 -9 -43 -1 -10 15 -11 64 -4 23 4 25 1
22 -34 -4 -45 13 -55 56 -33 35 18 42 13 42 -31 0 -26 4 -33 19 -33 10 0 24 7
31 15 21 25 48 18 55 -15 9 -42 25 -47 51 -17 29 34 40 34 59 -3 20 -38 31
-38 53 0 21 36 32 37 62 5 26 -28 44 -21 54 20 7 28 27 32 46 10 16 -19 50
-20 50 -1 0 8 4 26 10 41 9 25 11 25 39 10 44 -22 50 -19 53 28 3 36 6 41 23
38 60 -12 66 -6 54 54 -3 17 2 20 39 23 46 3 49 9 27 53 -15 28 -15 30 10 39
15 6 33 10 41 10 19 0 18 34 -1 50 -22 19 -18 39 10 46 41 10 48 28 20 54 -32
30 -31 41 5 62 38 22 38 33 0 53 -37 19 -37 30 -3 59 30 26 25 42 -17 51 -33
7 -40 34 -15 55 8 7 15 21 15 31 0 15 -7 19 -33 19 -44 0 -49 7 -31 42 22 43
12 60 -33 56 -35 -3 -38 -1 -34 22 7 49 6 65 -4 64 -5 -1 -25 -5 -42 -9 -33
-7 -33 -6 -33 34 0 48 -13 58 -45 37 -36 -24 -44 -20 -51 24 -7 45 -18 49 -54
20 -34 -26 -37 -25 -50 15 -14 42 -25 43 -61 9 l-27 -25 -22 35 c-12 20 -23
36 -25 36 -2 0 -13 -11 -24 -26z m-62 -63 c22 -14 6 -38 -31 -46 -63 -13 -155
-64 -197 -110 -22 -24 -41 -49 -41 -54 0 -5 12 -19 26 -30 25 -20 39 -21 256
-21 217 0 232 -1 269 -22 41 -23 65 -65 54 -97 -3 -11 -22 -39 -40 -61 l-34
-41 41 -80 c22 -44 50 -86 61 -94 35 -24 75 -19 105 14 84 92 100 128 82 175
-9 25 -8 32 11 52 27 29 42 21 34 -18 -4 -16 -1 -42 5 -59 10 -23 10 -32 0
-44 -8 -9 -10 -29 -7 -52 5 -27 1 -42 -13 -61 -12 -15 -18 -33 -14 -46 3 -15
-3 -29 -20 -46 -15 -13 -26 -32 -26 -42 0 -11 -13 -31 -30 -45 -16 -13 -30
-31 -30 -38 0 -18 -32 -28 -42 -13 -12 20 -10 28 17 60 50 60 24 85 -97 90
-48 1 -92 8 -98 14 -6 6 -18 37 -26 69 -28 105 -63 135 -162 135 -45 0 -63 -5
-80 -20 -29 -27 -37 -63 -20 -96 14 -30 29 -40 71 -49 17 -3 27 -12 27 -24 0
-15 -11 -19 -77 -25 -42 -3 -110 -6 -151 -6 -106 0 -139 -33 -91 -93 17 -22
18 -30 8 -49 l-12 -22 -16 23 c-9 13 -28 35 -43 50 -16 14 -28 33 -28 42 0 9
-10 29 -22 45 -13 15 -21 37 -20 49 2 12 -6 33 -18 47 -17 22 -18 31 -9 51 9
20 8 30 -6 50 -15 24 -15 27 1 52 13 20 15 31 6 50 -8 17 -8 26 1 34 24 19 39
-28 41 -127 1 -90 2 -95 29 -118 38 -32 122 -34 155 -4 30 29 34 52 30 185 -3
110 -4 118 -28 137 -19 15 -33 18 -62 14 -20 -3 -48 -2 -61 3 -17 7 -32 5 -51
-4 -33 -17 -37 2 -6 30 11 10 20 27 20 37 0 17 15 35 79 99 64 64 82 79 99 79
10 0 27 9 37 20 11 12 31 20 50 20 19 0 39 8 50 20 20 22 24 23 44 11z m255
-29 c18 4 32 -2 47 -18 13 -13 32 -24 43 -24 11 0 34 -15 52 -32 18 -18 41
-41 51 -51 57 -57 73 -77 73 -90 0 -9 11 -29 25 -45 13 -16 22 -32 19 -35 -13
-13 -57 19 -74 54 -49 95 -183 198 -286 219 -56 12 -70 30 -36 49 13 7 22 5
39 -11 15 -14 31 -19 47 -16z m-144 -13 c23 -41 -38 -68 -63 -27 -8 12 -7 21
2 32 19 22 48 20 61 -5z m-84 -64 c32 -49 50 -50 100 -10 42 35 46 36 82 24
89 -28 162 -80 220 -154 l35 -46 -21 -45 c-33 -68 -30 -82 28 -107 47 -21 50
-24 50 -59 0 -35 -2 -38 -28 -38 -25 0 -29 -4 -29 -29 0 -39 -19 -61 -53 -61
-31 0 -44 13 -54 53 -3 15 -19 41 -34 58 l-28 31 43 43 c37 36 43 48 43 83 0
32 -7 49 -32 78 -54 61 -69 64 -343 64 -135 0 -245 3 -245 8 0 13 109 87 162
109 68 29 84 28 104 -2z m-348 -244 c8 -4 12 -19 10 -32 -4 -33 -53 -40 -63
-9 -11 36 22 61 53 41z m850 -3 c16 -16 15 -33 -4 -52 -21 -21 -54 -4 -54 29
0 32 35 46 58 23z m-738 -138 l0 -140 -64 0 c-71 0 -73 2 -77 90 -3 77 -1 80
46 100 35 15 45 24 45 43 0 12 -5 28 -12 35 -9 9 -4 12 25 12 l37 0 0 -140z
m349 -79 c18 -18 27 -42 45 -124 4 -16 18 -40 32 -54 24 -24 30 -25 120 -21
51 1 94 0 94 -3 0 -3 -8 -14 -19 -23 -15 -13 -29 -16 -69 -10 -56 7 -60 4 -70
-58 -7 -41 -9 -44 -62 -61 -67 -23 -186 -23 -257 -2 -44 13 -54 20 -59 43 -17
77 -17 77 -76 77 -49 0 -88 15 -88 34 0 3 82 6 181 6 l181 0 0 65 0 65 -56 3
-56 3 0 39 0 40 70 0 c56 0 74 -4 89 -19z m-294 -306 c0 -25 -4 -31 -27 -33
-19 -2 -28 2 -33 18 -8 27 12 52 39 48 16 -2 21 -10 21 -33z m523 23 c16 -16
15 -33 -4 -52 -21 -21 -54 -4 -54 29 0 32 35 46 58 23z m-459 -97 c94 -48 249
-48 344 0 33 18 42 19 53 7 22 -22 -10 -62 -42 -54 -16 4 -34 -1 -53 -15 -24
-17 -32 -19 -50 -10 -17 10 -27 8 -50 -5 -27 -16 -31 -16 -55 -1 -20 14 -30
15 -50 6 -21 -10 -29 -8 -52 10 -19 15 -36 20 -53 17 -20 -4 -30 0 -45 20 -15
22 -16 28 -5 35 18 11 14 12 58 -10z"/>
<path d="M820 920 c-41 -41 -34 -104 15 -136 20 -13 41 -16 101 -12 65 4 79 9
104 33 44 42 38 78 -20 118 -37 26 -173 24 -200 -3z m200 -40 c16 -16 18 -25
10 -40 -9 -17 -21 -20 -74 -20 -35 0 -78 -3 -95 -6 l-31 -6 0 46 0 46 85 0
c72 0 88 -3 105 -20z"/>
<path d="M2430 939 l0 -51 -30 7 c-30 6 -30 6 -30 -34 0 -39 2 -41 30 -41 l30
0 0 -97 c0 -59 5 -108 13 -123 16 -31 65 -49 140 -49 l57 -1 0 39 0 40 -47 3
-48 3 -3 93 -3 92 56 0 55 0 0 40 0 40 -57 -2 -57 -3 3 48 3 47 -56 0 -56 0 0
-51z m68 -27 c2 -11 10 -26 18 -32 18 -16 18 -34 -1 -50 -22 -18 -21 -172 1
-205 19 -30 2 -35 -28 -8 -15 13 -18 32 -18 102 0 68 -4 91 -19 110 -18 24
-18 25 3 67 22 45 39 51 44 16z"/>
<path d="M1600 771 c0 -139 6 -167 41 -200 35 -32 117 -29 158 5 l31 26 0 -26
c0 -25 2 -26 55 -26 l55 0 0 175 0 175 -55 0 -55 0 0 -109 c0 -94 -3 -112 -21
-135 -22 -28 -66 -35 -87 -14 -8 8 -12 53 -12 135 l0 123 -55 0 -55 0 0 -129z
m300 -47 c0 -93 -3 -116 -15 -120 -8 -4 -22 -1 -30 6 -13 10 -13 16 0 47 9 20
15 67 15 108 0 39 3 75 6 78 18 17 24 -14 24 -119z m-232 21 c2 -68 7 -94 22
-116 24 -32 25 -39 6 -39 -8 0 -24 12 -35 26 -18 23 -21 41 -21 126 0 75 3 99
13 96 8 -3 13 -33 15 -93z"/>
<path d="M2078 884 c-36 -19 -48 -43 -48 -93 0 -64 24 -80 155 -108 42 -8 60
-38 33 -54 -21 -14 -101 -10 -147 6 l-41 14 0 -43 c0 -42 1 -44 38 -50 80 -13
186 -7 218 13 59 36 66 124 13 163 -13 10 -53 23 -89 30 -76 13 -100 29 -80
52 16 20 90 20 143 2 l37 -14 0 43 c0 40 -2 43 -31 49 -57 11 -173 6 -201 -10z
m193 -184 c25 -14 25 -61 -1 -85 -19 -17 -19 -17 -8 13 10 25 9 35 -5 56 -19
28 -16 32 14 16z"/>
</g>
</svg>
